<?xml version="1.0" encoding="us-ascii" standalone="no"?><svg xmlns="http://www.w3.org/2000/svg" xmlns:xlink="http://www.w3.org/1999/xlink" contentStyleType="text/css" height="631px" preserveAspectRatio="none" style="width:972px;height:631px;background:#FFFFFF;" version="1.1" viewBox="0 0 972 631" width="972px" zoomAndPan="magnify"><defs/><g><!--cluster ???????--><g id="cluster_&#12456;&#12531;&#12489;&#12518;&#12540;&#12470;&#12540;"><path d="M36.5,6 L135.5,6 A3.75,3.75 0 0 1 138,8.5 L145,28.4883 L356.5,28.4883 A2.5,2.5 0 0 1 359,30.9883 L359,100.99 A2.5,2.5 0 0 1 356.5,103.49 L36.5,103.49 A2.5,2.5 0 0 1 34,100.99 L34,8.5 A2.5,2.5 0 0 1 36.5,6 " fill="none" style="stroke:#000000;stroke-width:1.5;"/><line style="stroke:#000000;stroke-width:1.5;" x1="34" x2="145" y1="28.4883" y2="28.4883"/><text fill="#000000" font-family="sans-serif" font-size="14" font-weight="bold" lengthAdjust="spacing" textLength="98" x="38" y="21.5352">&#12456;&#12531;&#12489;&#12518;&#12540;&#12470;&#12540;</text></g><g id="cluster_##5"><path d="M691.6235,532.3336 C697.1998,524.4962 704.0745,522.7274 710.2553,531.6621 C715.6863,521.6666 723.2473,522.4943 729.9035,530.3104 C735.2449,520.11 743.3492,520.0661 748.8318,530.1789 C752.3753,520.5143 759.1633,519.9942 765.68,527.2118 C771.0675,516.9671 780.383,519.9236 785.0967,527.9288 C789.9815,517.8604 796.6567,519.1584 803.189,526.1851 C806.8562,515.9988 815.7291,516.3433 821.8435,523.5622 C828.5337,515.8336 833.444,517.8633 838.0163,525.755 C843.0368,516.6238 851.9265,516.8587 857.3051,525.3634 C864.2682,516.5831 872.2985,518.3883 877.3548,527.5002 C882.1808,518.3028 889.4514,520.4038 894.4237,527.3454 C901.2492,518.8762 908.458,522.8862 911.9069,530.9222 C916.9152,522.0129 925.25,519.6226 931.4276,529.7213 C936.8416,521.2899 945.0496,523.6016 948.6105,531.6532 C964.157,539.9676 965.7535,550.9407 951.3037,561.9238 C964.0538,572.8616 964.2496,585.1612 949.2705,594.3609 C944.4269,602.3652 938.6092,602.8692 932.5732,595.6706 C927.8441,606.5904 920.9219,607.9481 913.3343,598.3511 C909.6572,607.303 902.0597,608.0865 896.1815,600.6557 C890.5051,609.3197 883.183,610.7276 876.0027,602.4465 C871.4338,610.8114 864.152,611.2326 858.7056,603.3825 C854.5662,612.6953 846.6384,614.185 840.0281,606.0234 C833.8409,616.1938 826.8612,616.2962 820.402,606.2879 C814.7095,613.9634 805.3203,613.7914 801.1576,604.5479 C795.7996,611.4941 789.6634,610.084 785.9695,602.7749 C778.831,609.9039 771.7479,610.4635 766.5817,600.5333 C760.1248,608.848 753.0597,606.4399 748.6546,598.2981 C744.403,606.6084 735.8227,607.0301 730.9673,598.9497 C724.445,607.2465 715.208,610.0226 709.5648,598.0226 C702.4052,604.3821 697.4052,602.9572 693.5774,594.4416 C676.5587,587.0915 673.0145,578.2029 686.811,564.0028 C672.6215,553.598 674.0789,537.9161 691.6235,532.3336 " fill="none" style="stroke:#181818;stroke-width:1.0;"/></g><!--cluster AWS--><g id="cluster_AWS"><path d="M8.5,152.49 L40.5,152.49 A3.75,3.75 0 0 1 43,154.99 L50,174.9783 L656.5,174.9783 A2.5,2.5 0 0 1 659,177.4783 L659,622.45 A2.5,2.5 0 0 1 656.5,624.95 L8.5,624.95 A2.5,2.5 0 0 1 6,622.45 L6,154.99 A2.5,2.5 0 0 1 8.5,152.49 " fill="none" style="stroke:#000000;stroke-width:1.5;"/><line style="stroke:#000000;stroke-width:1.5;" x1="6" x2="50" y1="174.9783" y2="174.9783"/><text fill="#000000" font-family="sans-serif" font-size="14" font-weight="bold" lengthAdjust="spacing" textLength="31" x="10" y="168.0252">AWS</text></g><!--cluster ??????? {Lambda}--><g id="cluster_&#12501;&#12525;&#12531;&#12488;&#12456;&#12531;&#12489; {Lambda}"><rect fill="none" height="97.48" rx="2.5" ry="2.5" style="stroke:#181818;stroke-width:1.0;" width="185" x="36" y="195.49"/><path d="M215,195.49 L215,204.9783 L205,214.9783 L36,214.9783 " fill="none" style="stroke:#181818;stroke-width:1.0;"/><text fill="#000000" font-family="sans-serif" font-size="14" font-weight="bold" lengthAdjust="spacing" textLength="169" x="39" y="210.0252">&#12501;&#12525;&#12531;&#12488;&#12456;&#12531;&#12489; {Lambda}</text></g><!--cluster ?????? {Lambda}--><g id="cluster_&#12496;&#12483;&#12463;&#12456;&#12531;&#12489; {Lambda}"><rect fill="none" height="97.49" rx="2.5" ry="2.5" style="stroke:#181818;stroke-width:1.0;" width="196" x="30" y="341.97"/><path d="M195,341.97 L195,351.4583 L185,361.4583 L30,361.4583 " fill="none" style="stroke:#181818;stroke-width:1.0;"/><text fill="#000000" font-family="sans-serif" font-size="14" font-weight="bold" lengthAdjust="spacing" textLength="155" x="33" y="356.5052">&#12496;&#12483;&#12463;&#12456;&#12531;&#12489; {Lambda}</text></g><!--cluster ???? {Lambda}--><g id="cluster_&#23450;&#26399;&#23455;&#34892; {Lambda}"><rect fill="none" height="97.49" rx="2.5" ry="2.5" style="stroke:#181818;stroke-width:1.0;" width="385" x="250" y="341.97"/><path d="M387,341.97 L387,351.4583 L377,361.4583 L250,361.4583 " fill="none" style="stroke:#181818;stroke-width:1.0;"/><text fill="#000000" font-family="sans-serif" font-size="14" font-weight="bold" lengthAdjust="spacing" textLength="127" x="253" y="356.5052">&#23450;&#26399;&#23455;&#34892; {Lambda}</text></g><!--cluster ??????--><g id="cluster_&#12487;&#12540;&#12479;&#12505;&#12540;&#12473;"><path d="M304,498.46 C304,488.46 377,488.46 377,488.46 C377,488.46 450,488.46 450,498.46 L450,590.95 C450,600.95 377,600.95 377,600.95 C377,600.95 304,600.95 304,590.95 L304,498.46 " fill="none" style="stroke:#181818;stroke-width:1.0;"/><path d="M304,498.46 C304,508.46 377,508.46 377,508.46 C377,508.46 450,508.46 450,498.46 " fill="none" style="stroke:#181818;stroke-width:1.0;"/><text fill="#000000" font-family="sans-serif" font-size="14" font-weight="bold" lengthAdjust="spacing" textLength="84" x="335" y="523.9952">&#12487;&#12540;&#12479;&#12505;&#12540;&#12473;</text></g><!--entity WebBrowser--><g id="elem_WebBrowser"><rect fill="#F1F1F1" height="46.4883" rx="2.5" ry="2.5" style="stroke:#181818;stroke-width:0.5;" width="125" x="49.5" y="41"/><rect fill="#F1F1F1" height="10" style="stroke:#181818;stroke-width:0.5;" width="15" x="154.5" y="46"/><rect fill="#F1F1F1" height="2" style="stroke:#181818;stroke-width:0.5;" width="4" x="152.5" y="48"/><rect fill="#F1F1F1" height="2" style="stroke:#181818;stroke-width:0.5;" width="4" x="152.5" y="52"/><text fill="#000000" font-family="sans-serif" font-size="14" lengthAdjust="spacing" textLength="85" x="64.5" y="74.5352">Web&#12502;&#12521;&#12454;&#12470;</text></g><!--entity SmartPhone--><g id="elem_SmartPhone"><rect fill="#F1F1F1" height="46.4883" rx="2.5" ry="2.5" style="stroke:#181818;stroke-width:0.5;" width="134" x="209" y="41"/><rect fill="#F1F1F1" height="10" style="stroke:#181818;stroke-width:0.5;" width="15" x="323" y="46"/><rect fill="#F1F1F1" height="2" style="stroke:#181818;stroke-width:0.5;" width="4" x="321" y="48"/><rect fill="#F1F1F1" height="2" style="stroke:#181818;stroke-width:0.5;" width="4" x="321" y="52"/><text fill="#000000" font-family="sans-serif" font-size="14" lengthAdjust="spacing" textLength="94" x="224" y="74.5352">&#12473;&#12510;&#12507;{&#12450;&#12503;&#12522;}</text></g><!--entity JMA--><g id="elem_JMA"><rect fill="#F1F1F1" height="46.4883" rx="2.5" ry="2.5" style="stroke:#181818;stroke-width:0.5;" width="104" x="836" y="538.46"/><rect fill="#F1F1F1" height="10" style="stroke:#181818;stroke-width:0.5;" width="15" x="920" y="543.46"/><rect fill="#F1F1F1" height="2" style="stroke:#181818;stroke-width:0.5;" width="4" x="918" y="545.46"/><rect fill="#F1F1F1" height="2" style="stroke:#181818;stroke-width:0.5;" width="4" x="918" y="549.46"/><text fill="#000000" font-family="sans-serif" font-size="14" lengthAdjust="spacing" textLength="64" x="851" y="571.9952">&#27671;&#35937;&#24193;API</text></g><!--entity YouTube--><g id="elem_YouTube"><rect fill="#F1F1F1" height="46.4883" rx="2.5" ry="2.5" style="stroke:#181818;stroke-width:0.5;" width="102" x="699" y="538.46"/><rect fill="#F1F1F1" height="10" style="stroke:#181818;stroke-width:0.5;" width="15" x="781" y="543.46"/><rect fill="#F1F1F1" height="2" style="stroke:#181818;stroke-width:0.5;" width="4" x="779" y="545.46"/><rect fill="#F1F1F1" height="2" style="stroke:#181818;stroke-width:0.5;" width="4" x="779" y="549.46"/><text fill="#000000" font-family="sans-serif" font-size="14" lengthAdjust="spacing" textLength="62" x="714" y="571.9952">YouTube</text></g><!--entity NextJs--><g id="elem_NextJs"><rect fill="#F1F1F1" height="46.4883" rx="2.5" ry="2.5" style="stroke:#181818;stroke-width:0.5;" width="87" x="82.5" y="230.49"/><rect fill="#F1F1F1" height="10" style="stroke:#181818;stroke-width:0.5;" width="15" x="149.5" y="235.49"/><rect fill="#F1F1F1" height="2" style="stroke:#181818;stroke-width:0.5;" width="4" x="147.5" y="237.49"/><rect fill="#F1F1F1" height="2" style="stroke:#181818;stroke-width:0.5;" width="4" x="147.5" y="241.49"/><text fill="#000000" font-family="sans-serif" font-size="14" lengthAdjust="spacing" textLength="47" x="97.5" y="264.0252">Next.js</text></g><!--entity API--><g id="elem_API"><rect fill="#F1F1F1" height="46.4883" rx="2.5" ry="2.5" style="stroke:#181818;stroke-width:0.5;" width="164" x="46" y="376.97"/><rect fill="#F1F1F1" height="10" style="stroke:#181818;stroke-width:0.5;" width="15" x="190" y="381.97"/><rect fill="#F1F1F1" height="2" style="stroke:#181818;stroke-width:0.5;" width="4" x="188" y="383.97"/><rect fill="#F1F1F1" height="2" style="stroke:#181818;stroke-width:0.5;" width="4" x="188" y="387.97"/><text fill="#000000" font-family="sans-serif" font-size="14" lengthAdjust="spacing" textLength="124" x="61" y="410.5052">API&#12469;&#12540;&#12496;{FastAPI}</text></g><!--entity InferenceProcessor--><g id="elem_InferenceProcessor"><rect fill="#F1F1F1" height="46.4883" rx="2.5" ry="2.5" style="stroke:#181818;stroke-width:0.5;" width="222" x="266" y="376.97"/><rect fill="#F1F1F1" height="10" style="stroke:#181818;stroke-width:0.5;" width="15" x="468" y="381.97"/><rect fill="#F1F1F1" height="2" style="stroke:#181818;stroke-width:0.5;" width="4" x="466" y="383.97"/><rect fill="#F1F1F1" height="2" style="stroke:#181818;stroke-width:0.5;" width="4" x="466" y="387.97"/><text fill="#000000" font-family="sans-serif" font-size="14" lengthAdjust="spacing" textLength="182" x="281" y="410.5052">&#12521;&#12452;&#12502;&#12473;&#12488;&#12522;&#12540;&#12511;&#12531;&#12464;&#12398;&#25512;&#35542;</text></g><!--entity TaskSchedule--><g id="elem_TaskSchedule"><rect fill="#F1F1F1" height="46.4883" rx="2.5" ry="2.5" style="stroke:#181818;stroke-width:0.5;" width="96" x="523" y="376.97"/><rect fill="#F1F1F1" height="10" style="stroke:#181818;stroke-width:0.5;" width="15" x="599" y="381.97"/><rect fill="#F1F1F1" height="2" style="stroke:#181818;stroke-width:0.5;" width="4" x="597" y="383.97"/><rect fill="#F1F1F1" height="2" style="stroke:#181818;stroke-width:0.5;" width="4" x="597" y="387.97"/><text fill="#000000" font-family="sans-serif" font-size="14" lengthAdjust="spacing" textLength="56" x="538" y="410.5052">&#27671;&#35937;&#24773;&#22577;</text></g><!--entity DB--><g id="elem_DB"><rect fill="#F1F1F1" height="46.4883" rx="2.5" ry="2.5" style="stroke:#181818;stroke-width:0.5;" width="114" x="320" y="538.46"/><rect fill="#F1F1F1" height="10" style="stroke:#181818;stroke-width:0.5;" width="15" x="414" y="543.46"/><rect fill="#F1F1F1" height="2" style="stroke:#181818;stroke-width:0.5;" width="4" x="412" y="545.46"/><rect fill="#F1F1F1" height="2" style="stroke:#181818;stroke-width:0.5;" width="4" x="412" y="549.46"/><text fill="#000000" font-family="sans-serif" font-size="14" lengthAdjust="spacing" textLength="74" x="335" y="571.9952">DynamoDB</text></g><!--link WebBrowser to NextJs--><g id="link_WebBrowser_NextJs"><path d="M113.69,87.86 C116.38,123.89 121.1622,187.9667 123.8622,224.0467 " fill="none" id="WebBrowser-to-NextJs" style="stroke:#181818;stroke-width:1.0;"/><polygon fill="#181818" points="124.31,230.03,127.6272,220.7566,123.9369,225.0439,119.6495,221.3536,124.31,230.03" style="stroke:#181818;stroke-width:1.0;"/><text fill="#000000" font-family="sans-serif" font-size="13" lengthAdjust="spacing" textLength="26" x="117.93" y="133.0584">&#34920;&#31034;</text></g><!--link NextJs to API--><g id="link_NextJs_API"><path d="M126.31,277.31 C126.69,304.45 127.2258,343.7306 127.6058,370.8006 " fill="none" id="NextJs-to-API" style="stroke:#181818;stroke-width:1.0;"/><polygon fill="#181818" points="127.69,376.8,131.5633,367.7447,127.6198,371.8005,123.5641,367.857,127.69,376.8" style="stroke:#181818;stroke-width:1.0;"/><text fill="#000000" font-family="sans-serif" font-size="13" lengthAdjust="spacing" textLength="91" x="127.94" y="322.5384">&#12522;&#12463;&#12456;&#12473;&#12488;&#36865;&#20449;</text></g><!--link SmartPhone to API--><g id="link_SmartPhone_API"><path d="M277.19,87.8 C278.65,135.6 276.31,248.97 228,325.97 C214.68,347.21 197.8752,361.1377 177.9552,373.4377 " fill="none" id="SmartPhone-to-API" style="stroke:#181818;stroke-width:1.0;"/><polygon fill="#181818" points="172.85,376.59,182.6093,375.265,177.1043,373.9631,178.4063,368.4581,172.85,376.59" style="stroke:#181818;stroke-width:1.0;"/><text fill="#000000" font-family="sans-serif" font-size="13" lengthAdjust="spacing" textLength="91" x="277.22" y="258.7984">&#12522;&#12463;&#12456;&#12473;&#12488;&#36865;&#20449;</text></g><!--link API to DB--><g id="link_API_DB"><path d="M156.79,423.94 C175.54,438.4 200.75,457.2 224,472.46 C260.4,496.35 298.2414,518.0008 329.4014,535.1208 " fill="none" id="API-to-DB" style="stroke:#181818;stroke-width:1.0;"/><polygon fill="#181818" points="334.66,538.01,328.6983,530.1705,330.2779,535.6023,324.846,537.1819,334.66,538.01" style="stroke:#181818;stroke-width:1.0;"/><text fill="#000000" font-family="sans-serif" font-size="13" lengthAdjust="spacing" textLength="143" x="225" y="469.0284">&#27671;&#35937;&#24773;&#22577;&#12539;&#25512;&#35542;&#32080;&#26524;&#21462;&#24471;</text></g><!--link TaskSchedule to JMA--><g id="link_TaskSchedule_JMA"><path d="M619.47,406.02 C686.42,413.5 802.72,429.8 836,455.46 C862.63,476 874.9733,507.9855 881.4933,532.2555 " fill="none" id="TaskSchedule-to-JMA" style="stroke:#181818;stroke-width:1.0;"/><polygon fill="#181818" points="883.05,538.05,884.578,528.3204,881.7528,533.2212,876.852,530.396,883.05,538.05" style="stroke:#181818;stroke-width:1.0;"/><text fill="#000000" font-family="sans-serif" font-size="13" lengthAdjust="spacing" textLength="78" x="852.61" y="469.0284">&#22825;&#27671;&#24773;&#22577;&#21462;&#24471;</text></g><!--link InferenceProcessor to YouTube--><g id="link_InferenceProcessor_YouTube"><path d="M430.72,423.88 C453.54,432.61 480.69,441.83 506,447.46 C543.04,455.71 555.22,442.83 591,455.46 C643.13,473.86 690.3213,509.1743 720.0213,534.1943 " fill="none" id="InferenceProcessor-to-YouTube" style="stroke:#181818;stroke-width:1.0;"/><polygon fill="#181818" points="724.61,538.06,720.304,529.2023,720.786,534.8386,715.1498,535.3207,724.61,538.06" style="stroke:#181818;stroke-width:1.0;"/><text fill="#000000" font-family="sans-serif" font-size="13" lengthAdjust="spacing" textLength="156" x="629.97" y="469.0284">&#12521;&#12452;&#12502;&#12473;&#12488;&#12522;&#12540;&#12511;&#12531;&#12464;&#21462;&#24471;</text></g><!--link InferenceProcessor to DB--><g id="link_InferenceProcessor_DB"><path d="M377,423.73 C377,454.04 377,501.67 377,532.05 " fill="none" id="InferenceProcessor-to-DB" style="stroke:#181818;stroke-width:1.0;"/><polygon fill="#181818" points="377,538.05,381,529.05,377,533.05,373,529.05,377,538.05" style="stroke:#181818;stroke-width:1.0;"/><text fill="#000000" font-family="sans-serif" font-size="13" lengthAdjust="spacing" textLength="78" x="378" y="469.0284">&#25512;&#35542;&#32080;&#26524;&#20445;&#23384;</text></g><!--link TaskSchedule to DB--><g id="link_TaskSchedule_DB"><path d="M543.62,423.73 C506.75,454.04 446.1551,503.8601 409.1951,534.2401 " fill="none" id="TaskSchedule-to-DB" style="stroke:#181818;stroke-width:1.0;"/><polygon fill="#181818" points="404.56,538.05,414.0526,535.4252,408.4226,534.8751,408.9727,529.245,404.56,538.05" style="stroke:#181818;stroke-width:1.0;"/><text fill="#000000" font-family="sans-serif" font-size="13" lengthAdjust="spacing" textLength="78" x="503.71" y="469.0284">&#22825;&#27671;&#24773;&#22577;&#20445;&#23384;</text></g><!--SRC=[XL9TInj157tE_8h1T_i3-b1828BIba044Ud3P3DMgidAJe9A29Yzb2gKDYzD-c5DKuB4Yb4H1JymF-QwQ_eld7jtMvUAzcMvU-USC-UUEylAMLIljHn3luzmZB29i8DmYVwf_Ox9cf1oRaON45e8k-Zls8DNKXbfUndFNJ7Q8mJwPmZR2DzgwFz4Q2FygZCiNr9U9RVWbhMe2-4ikTLYf1aUjaT7tU2yaSvDCdBgHPhwisvrkbhGt8fhOYx_yPcUoPEhrBodIcGRFY7ii_EDloF8sdDLAXHLdP6fkPTwjVBaZM5DggUCIDKJ4aq4GF_WGRwrYFu9fGBDseGo5Tk8nhD5KYeOV0stEi6WC-g-_rU4u-jHZfJLXas81JjqfN-8ZK7ueJ_QQx7iP7bUUxhiw9pdEjeOroE5AB8GtWO_ZXWshSnYtbdGnUgI9XiYLLGLLL26fth7QnmYVE7YBFQHNIkhaflDi48sGppBl5kd71z_5gSadyfHjt_JEnVnFntPaMsVx4U9yJI_rnlNmwwus_P_eNH6c6p6GfAJ8Ln4IToSDCFjhU1ZAxXgY-IepBFFnHA3tgxbHiGOUJyxniTlYVqyjeZ7LIAt2NlNm-_1_kVxzXYOT1S1Rm40]--></g></svg>